bozucu_refleks_KAPALI_x10_YAVAS4x
version=1
nRows=62
nColumns=15
inDegrees=yes
endheader
time	sacrum_pitch	sacrum_roll	sacrum_yaw	sacrum_x	sacrum_y	sacrum_z	sacroiliac_flx	hip_flx	hip_add	hip_int	knee_flx	ankle_flx	ankle_add	ankle_int
6.965600	22.370217	0.000000	0.000000	0.000000	0.672500	0.000000	3.700000	-3.954031	-10.000000	0.000000	-105.757851	33.483248	-5.000000	0.000000
6.966400	22.370217	0.000000	0.000000	0.000000	0.672500	0.000000	3.700000	-3.953785	-10.000000	0.000000	-105.763071	33.445145	-5.000000	0.000000
6.967200	22.370217	0.000000	0.000000	0.000000	0.672500	0.000000	3.700000	-3.953359	-10.000000	0.000000	-105.768528	33.407043	-5.000000	0.000000
6.968000	22.370217	0.000000	0.000000	0.000000	0.672500	0.000000	3.700000	-3.952764	-10.000000	0.000000	-105.774132	33.368940	-5.000000	0.000000
6.968800	22.370217	0.000000	0.000000	0.000000	0.672500	0.000000	3.700000	-3.952010	-10.000000	0.000000	-105.779813	33.330838	-5.000000	0.000000
6.969600	22.370217	0.000000	0.000000	0.000000	0.672500	0.000000	3.700000	-3.951108	-10.000000	0.000000	-105.785517	33.292735	-5.000000	0.000000
6.970400	22.370217	0.000000	0.000000	0.000000	0.672500	0.000000	3.700000	-3.950066	-10.000000	0.000000	-105.791201	33.254633	-5.000000	0.000000
6.971200	22.370217	0.000000	0.000000	0.000000	0.672500	0.000000	3.700000	-3.948893	-10.000000	0.000000	-105.796837	33.216530	-5.000000	0.000000
6.972000	22.370217	0.000000	0.000000	0.000000	0.672500	0.000000	3.700000	-3.947595	-10.000000	0.000000	-105.802405	33.178427	-5.000000	0.000000
6.972800	22.370217	0.000000	0.000000	0.000000	0.672500	0.000000	3.700000	-3.946178	-10.000000	0.000000	-105.807895	33.140325	-5.000000	0.000000
6.973600	22.370217	0.000000	0.000000	0.000000	0.672500	0.000000	3.700000	-3.944645	-10.000000	0.000000	-105.813329	33.103933	-5.000000	0.000000
6.974400	22.370217	0.000000	0.000000	0.000000	0.672500	0.000000	3.700000	-3.942987	-10.000000	0.000000	-105.818823	33.068931	-5.000000	0.000000
6.975200	22.370217	0.000000	0.000000	0.000000	0.672500	0.000000	3.700000	-3.941192	-10.000000	0.000000	-105.824484	33.034209	-5.000000	0.000000
6.976000	22.370217	0.000000	0.000000	0.000000	0.672500	0.000000	3.700000	-3.939248	-10.000000	0.000000	-105.830401	32.999630	-5.000000	0.000000
6.976800	22.370217	0.000000	0.000000	0.000000	0.672500	0.000000	3.700000	-3.937145	-10.000000	0.000000	-105.836644	32.965051	-5.000000	0.000000
6.977600	22.370217	0.000000	0.000000	0.000000	0.672500	0.000000	3.700000	-3.934872	-10.000000	0.000000	-105.843268	32.930471	-5.000000	0.000000
6.978400	22.370217	0.000000	0.000000	0.000000	0.672500	0.000000	3.700000	-3.932418	-10.000000	0.000000	-105.850311	32.895892	-5.000000	0.000000
6.979200	22.370217	0.000000	0.000000	0.000000	0.672500	0.000000	3.700000	-3.929775	-10.000000	0.000000	-105.857805	32.861313	-5.000000	0.000000
6.980000	22.370217	0.000000	0.000000	0.000000	0.672500	0.000000	3.700000	-3.926934	-10.000000	0.000000	-105.865769	32.826734	-5.000000	0.000000
6.980800	22.370217	0.000000	0.000000	0.000000	0.672500	0.000000	3.700000	-3.923888	-10.000000	0.000000	-105.874213	32.792444	-5.000000	0.000000
6.981600	22.370217	0.000000	0.000000	0.000000	0.672500	0.000000	3.700000	-3.920640	-10.000000	0.000000	-105.883076	32.760660	-5.000000	0.000000
6.982400	22.370217	0.000000	0.000000	0.000000	0.672500	0.000000	3.700000	-3.917197	-10.000000	0.000000	-105.892264	32.729065	-5.000000	0.000000
6.983200	22.370217	0.000000	0.000000	0.000000	0.672500	0.000000	3.700000	-3.913568	-10.000000	0.000000	-105.901677	32.698164	-5.000000	0.000000
6.984000	22.370217	0.000000	0.000000	0.000000	0.672500	0.000000	3.700000	-3.909766	-10.000000	0.000000	-105.911223	32.667262	-5.000000	0.000000
6.984800	22.370217	0.000000	0.000000	0.000000	0.672500	0.000000	3.700000	-3.905801	-10.000000	0.000000	-105.920826	32.636361	-5.000000	0.000000
6.985600	22.370217	0.000000	0.000000	0.000000	0.672500	0.000000	3.700000	-3.901684	-10.000000	0.000000	-105.930427	32.605460	-5.000000	0.000000
6.986400	22.370217	0.000000	0.000000	0.000000	0.672500	0.000000	3.700000	-3.897425	-10.000000	0.000000	-105.939980	32.574559	-5.000000	0.000000
6.987200	22.370217	0.000000	0.000000	0.000000	0.672500	0.000000	3.700000	-3.893033	-10.000000	0.000000	-105.949452	32.543658	-5.000000	0.000000
6.988000	22.370217	0.000000	0.000000	0.000000	0.672500	0.000000	3.700000	-3.888515	-10.000000	0.000000	-105.958824	32.512756	-5.000000	0.000000
6.988800	22.370217	0.000000	0.000000	0.000000	0.672500	0.000000	3.700000	-3.883875	-10.000000	0.000000	-105.968110	32.483457	-5.000000	0.000000
6.989600	22.370217	0.000000	0.000000	0.000000	0.672500	0.000000	3.700000	-3.879108	-10.000000	0.000000	-105.977398	32.454999	-5.000000	0.000000
6.990400	22.370217	0.000000	0.000000	0.000000	0.672500	0.000000	3.700000	-3.874205	-10.000000	0.000000	-105.986784	32.427594	-5.000000	0.000000
6.991200	22.370217	0.000000	0.000000	0.000000	0.672500	0.000000	3.700000	-3.869152	-10.000000	0.000000	-105.996380	32.400511	-5.000000	0.000000
6.992000	22.370217	0.000000	0.000000	0.000000	0.672500	0.000000	3.700000	-3.863934	-10.000000	0.000000	-106.006281	32.373429	-5.000000	0.000000
6.992800	22.370217	0.000000	0.000000	0.000000	0.672500	0.000000	3.700000	-3.858539	-10.000000	0.000000	-106.016560	32.346346	-5.000000	0.000000
6.993600	22.370217	0.000000	0.000000	0.000000	0.672500	0.000000	3.700000	-3.852951	-10.000000	0.000000	-106.027279	32.319263	-5.000000	0.000000
6.994400	22.370217	0.000000	0.000000	0.000000	0.672500	0.000000	3.700000	-3.847158	-10.000000	0.000000	-106.038485	32.292180	-5.000000	0.000000
6.995200	22.370217	0.000000	0.000000	0.000000	0.672500	0.000000	3.700000	-3.841147	-10.000000	0.000000	-106.050215	32.265097	-5.000000	0.000000
6.996000	22.370217	0.000000	0.000000	0.000000	0.672500	0.000000	3.700000	-3.834906	-10.000000	0.000000	-106.062491	32.238439	-5.000000	0.000000
6.996800	22.370217	0.000000	0.000000	0.000000	0.672500	0.000000	3.700000	-3.828433	-10.000000	0.000000	-106.075274	32.213408	-5.000000	0.000000
6.997600	22.370217	0.000000	0.000000	0.000000	0.672500	0.000000	3.700000	-3.821729	-10.000000	0.000000	-106.088497	32.188978	-5.000000	0.000000
6.998400	22.370217	0.000000	0.000000	0.000000	0.672500	0.000000	3.700000	-3.814804	-10.000000	0.000000	-106.102047	32.165840	-5.000000	0.000000
6.999200	22.370217	0.000000	0.000000	0.000000	0.672500	0.000000	3.700000	-3.807669	-10.000000	0.000000	-106.115811	32.142703	-5.000000	0.000000
7.000000	22.370217	0.000000	0.000000	0.000000	0.672500	0.000000	3.700000	-3.800337	-10.000000	0.000000	-106.129692	32.119565	-5.000000	0.000000
7.000800	22.370217	0.000000	0.000000	0.000000	0.672500	0.000000	3.700000	-3.792819	-10.000000	0.000000	-106.143612	32.096428	-5.000000	0.000000
7.001600	22.370217	0.000000	0.000000	0.000000	0.672500	0.000000	3.700000	-3.785127	-10.000000	0.000000	-106.157506	32.073290	-5.000000	0.000000
7.002400	22.370217	0.000000	0.000000	0.000000	0.672500	0.000000	3.700000	-3.777272	-10.000000	0.000000	-106.171327	32.050152	-5.000000	0.000000
7.003200	22.370217	0.000000	0.000000	0.000000	0.672500	0.000000	3.700000	-3.769263	-10.000000	0.000000	-106.185040	32.027015	-5.000000	0.000000
7.004000	22.370217	0.000000	0.000000	0.000000	0.672500	0.000000	3.700000	-3.761106	-10.000000	0.000000	-106.198649	32.005109	-5.000000	0.000000
7.004800	22.370217	0.000000	0.000000	0.000000	0.672500	0.000000	3.700000	-3.752800	-10.000000	0.000000	-106.212205	31.983595	-5.000000	0.000000
7.005600	22.370217	0.000000	0.000000	0.000000	0.672500	0.000000	3.700000	-3.744339	-10.000000	0.000000	-106.225802	31.964198	-5.000000	0.000000
7.006400	22.370217	0.000000	0.000000	0.000000	0.672500	0.000000	3.700000	-3.735709	-10.000000	0.000000	-106.239579	31.945119	-5.000000	0.000000
7.007200	22.370217	0.000000	0.000000	0.000000	0.672500	0.000000	3.700000	-3.726892	-10.000000	0.000000	-106.253653	31.926041	-5.000000	0.000000
7.008000	22.370217	0.000000	0.000000	0.000000	0.672500	0.000000	3.700000	-3.717873	-10.000000	0.000000	-106.268122	31.906962	-5.000000	0.000000
7.008800	22.370217	0.000000	0.000000	0.000000	0.672500	0.000000	3.700000	-3.708635	-10.000000	0.000000	-106.283070	31.887883	-5.000000	0.000000
7.009600	22.370217	0.000000	0.000000	0.000000	0.672500	0.000000	3.700000	-3.699161	-10.000000	0.000000	-106.298565	31.868805	-5.000000	0.000000
7.010400	22.370217	0.000000	0.000000	0.000000	0.672500	0.000000	3.700000	-3.689432	-10.000000	0.000000	-106.314665	31.849726	-5.000000	0.000000
7.011200	22.370217	0.000000	0.000000	0.000000	0.672500	0.000000	3.700000	-3.679435	-10.000000	0.000000	-106.331411	31.831009	-5.000000	0.000000
7.012000	22.370217	0.000000	0.000000	0.000000	0.672500	0.000000	3.700000	-3.669158	-10.000000	0.000000	-106.348799	31.813095	-5.000000	0.000000
7.012800	22.370217	0.000000	0.000000	0.000000	0.672500	0.000000	3.700000	-3.658594	-10.000000	0.000000	-106.366798	31.796443	-5.000000	0.000000
7.013600	22.370217	0.000000	0.000000	0.000000	0.672500	0.000000	3.700000	-3.647752	-10.000000	0.000000	-106.385279	31.781525	-5.000000	0.000000
7.014400	22.370217	0.000000	0.000000	0.000000	0.672500	0.000000	3.700000	-3.636642	-10.000000	0.000000	-106.404111	31.766607	-5.000000	0.000000
